<svg width="400" height="400" viewBox="0 0 400 400" fill="none" xmlns="http://www.w3.org/2000/svg">
  <path d="M200 100C155.46 100 116.45 114.46 89.44 141.44L89.44 141.44C62.43 168.43 43.44 201.44 32.44 240.44C21.44 279.44 21.44 324.44 32.44 363.44C43.44 402.44 62.43 435.44 89.44 462.44L89.44 462.44C116.45 489.44 155.46 500 200 500C244.54 500 283.55 489.44 310.56 462.44L310.56 462.44C337.57 435.44 356.56 402.44 377.56 363.44C398.56 324.44 398.56 279.44 377.56 240.44C356.56 201.44 337.57 168.43 310.56 141.44L310.56 141.44C283.55 114.46 244.54 100 200 100Z" fill="#32CD32"/>
  <path d="M200 150C155.46 150 116.45 164.46 89.44 191.44C89.44 191.44 62.43 218.43 43.44 253.44C21.44 288.44 21.44 333.44 32.44 372.44C43.44 411.44 62.43 444.44 89.44 471.44C116.45 498.44 155.46 513 200 513C244.54 513 283.55 498.44 310.56 471.44C337.57 444.44 356.56 411.44 377.56 372.44C398.56 333.44 398.56 288.44 377.56 253.44C356.56 218.43 337.57 191.44 310.56 191.44C283.55 164.46 244.54 150 200 150Z" fill="#29A329"/>
  <path d="M200 200C155.46 200 116.45 214.46 89.44 241.44C89.44 241.44 62.43 268.43 43.44 303.44C21.44 338.44 21.44 383.44 32.44 422.44C43.44 461.44 62.43 494.44 89.44 521.44C116.45 548.44 155.46 563 200 563C244.54 563 283.55 548.44 310.56 521.44C337.57 494.44 356.56 461.44 377.56 422.44C398.56 383.44 398.56 338.44 377.56 303.44C356.56 268.43 337.57 241.44 310.56 241.44C283.55 214.46 244.54 200 200 200Z" fill="#228B22"/>
  <path d="M200 250C155.46 250 116.45 264.46 89.44 291.44C89.44 291.44 62.43 318.43 43.44 353.44C21.44 388.44 21.44 433.44 32.44 472.44C43.44 511.44 62.43 544.44 89.44 571.44C116.45 598.44 155.46 613 200 613C244.54 613 283.55 598.44 310.56 571.44C337.57 544.44 356.56 511.44 377.56 472.44C398.56 433.44 398.56 388.44 377.56 353.44C356.56 318.43 337.57 291.44 310.56 291.44C283.55 264.46 244.54 250 200 250Z" fill="#1B771B"/>
<path d="M200 300C155.46 300 116.45 314.46 89.44 341.44C89.44 341.44 62.43 368.43 43.44 403.44C21.44 438.44 21.44 483.44 32.44 522.44C43.44 561.44 62.43 594.44 89.44 621.44C116.45 648.44 155.46 663 200 663C244.54 663 283.55 648.44 310.56 621.44C337.57 594.44 350" fill="#03g330"> 
<path d="M200 100C155.46 100 116.45 114.46 89.44 141.44L89.44 141.44C62.43 168.43 43.44 201.44 32.44 240.44C21.44 279.44 21.44 324.44 32.44 363.44C43.44 402.44 62.43 435.44 89.44 462.44L89.44 462.44C116.45 489.44 155.46 500 200 500C244.54 500 283.55 489.44 310.56 462.44L310.56 462.44C337.57 435.44 356.56 402.44 377.56 363.44C398.56 324.44 398.56 279.44 377.56 240.44C356.56 201.44 337.57 168.43 310.56 141.44L310.56 141.44C283.55 114.46 244.54 100 200 100Z" fill="#32CD32"/>
</svg>

